<?xml version="1.0" standalone="no"?>
<!DOCTYPE svg PUBLIC "-//W3C//DTD SVG 20010904//EN"
 "http://www.w3.org/TR/2001/REC-SVG-20010904/DTD/svg10.dtd">
<svg version="1.0" xmlns="http://www.w3.org/2000/svg"
 width="700.000000pt" height="700.000000pt" viewBox="0 0 700.000000 700.000000"
 preserveAspectRatio="xMidYMid meet">
<metadata>
Created by potrace 1.14, written by Peter Selinger 2001-2017
</metadata>
<g transform="translate(0.000000,700.000000) scale(0.100000,-0.100000)"
fill="#000000" stroke="none">
<path d="M4240 5030 c-11 -11 -20 -29 -20 -41 0 -27 -37 -79 -56 -79 -8 0 -15
-3 -15 -7 -4 -23 -7 -58 -13 -148 -4 -55 -9 -116 -11 -135 -2 -19 -6 -78 -10
-130 -4 -52 -8 -111 -10 -130 -2 -19 -6 -78 -10 -130 -3 -52 -8 -115 -10 -140
-2 -25 -7 -85 -10 -135 -3 -49 -8 -116 -11 -148 -5 -69 -10 -140 -19 -267 -4
-52 -8 -111 -10 -130 -2 -19 -6 -78 -9 -130 -4 -52 -9 -115 -11 -140 -2 -25
-7 -74 -11 -110 -6 -64 -17 -91 -31 -76 -14 13 -11 129 5 227 13 82 13 103 3
123 -9 16 -11 40 -7 68 3 24 9 63 11 88 3 25 8 56 11 68 3 13 7 43 10 65 3 23
7 56 9 72 2 17 7 54 11 83 l7 52 -33 0 -32 0 6 63 c3 34 8 73 11 87 12 57 16
226 6 240 -10 13 -12 13 -21 0 -5 -8 -10 -33 -11 -55 0 -22 -2 -47 -3 -55 -2
-8 -7 -50 -10 -92 -4 -43 -9 -90 -11 -105 -2 -16 -6 -62 -9 -103 -3 -41 -8
-84 -10 -95 -2 -11 -7 -65 -11 -120 -3 -55 -8 -113 -10 -130 -3 -16 -9 -86
-15 -155 -14 -166 -20 -238 -25 -280 -2 -19 -7 -71 -10 -115 -4 -44 -8 -96
-10 -115 -2 -19 -6 -73 -10 -120 -4 -47 -9 -88 -11 -91 -2 -4 16 -36 41 -70
55 -77 75 -119 75 -156 0 -38 -8 -46 -61 -66 -57 -22 -78 -44 -86 -91 -5 -31
-3 -38 13 -43 10 -3 55 -46 98 -95 l80 -90 51 5 c65 7 137 31 518 176 256 97
350 127 522 169 302 74 468 114 485 117 68 14 480 117 497 125 17 7 22 16 19
32 -3 13 -5 34 -5 47 -1 19 -4 21 -15 12 -11 -10 -38 -9 -118 0 -119 15 -186
17 -210 5 -11 -5 -18 -4 -18 2 0 5 75 24 168 41 277 53 382 99 382 169 0 16
-6 29 -12 29 -7 1 -68 8 -134 15 -141 16 -259 16 -362 -2 -67 -11 -77 -10
-107 6 -31 16 -35 16 -58 1 -18 -11 -27 -13 -29 -5 -3 9 -20 9 -69 0 -99 -17
-122 -22 -149 -29 -36 -9 -39 -10 -100 -22 -30 -5 -66 -13 -80 -16 -21 -4
-126 -25 -195 -39 -11 -3 -39 -9 -62 -14 -35 -8 -43 -7 -43 4 0 8 -6 14 -14
14 -13 0 -119 -26 -313 -78 -40 -11 -73 -16 -73 -11 0 13 80 57 146 79 107 38
574 146 749 174 17 3 71 12 120 21 50 9 117 21 150 26 76 12 125 28 125 40 0
14 -26 15 -110 5 -69 -9 -248 -35 -276 -40 -12 -3 -39 -7 -60 -10 -283 -44
-656 -125 -778 -169 l-68 -25 6 101 c4 56 8 116 10 132 3 17 7 68 11 115 3 47
8 101 10 120 2 19 6 73 9 120 4 47 9 96 11 110 2 14 7 60 10 103 3 42 8 96 10
120 2 23 7 74 10 112 3 39 8 86 10 105 2 19 6 73 10 120 3 47 8 101 10 120 2
19 7 73 11 120 3 47 8 92 9 102 2 9 6 62 10 117 3 56 8 111 11 124 2 12 7 70
10 129 5 97 4 107 -13 116 -15 8 -30 3 -73 -24 -36 -21 -68 -34 -91 -34 -34 0
-36 1 -37 37 -3 66 -13 118 -31 148 -15 26 -24 30 -64 33 -36 2 -51 -2 -67
-18z"/>
<path d="M2288 5035 c-1 -1 -23 -5 -48 -9 -325 -44 -538 -116 -593 -199 -8
-13 -12 -29 -7 -36 8 -14 27 -6 165 69 92 50 93 52 -55 -103 -273 -287 -330
-351 -445 -502 -165 -217 -286 -423 -349 -597 -29 -82 -51 -112 -61 -85 -9 21
54 176 139 347 69 136 137 254 244 419 44 67 55 99 23 65 -56 -61 -279 -382
-374 -540 -81 -136 -156 -305 -173 -395 -3 -19 -6 -74 -5 -124 1 -91 2 -106
16 -228 5 -49 4 -75 -5 -92 -12 -22 -8 -32 48 -118 34 -52 87 -148 119 -213
89 -186 165 -283 299 -385 125 -95 320 -174 479 -195 22 -3 65 -9 95 -14 83
-13 296 -5 361 13 127 36 419 245 628 450 125 123 173 186 189 250 7 26 30 85
51 130 85 179 121 258 121 261 0 3 13 33 29 68 46 99 129 357 136 423 11 102
14 185 6 190 -21 12 -47 -27 -61 -96 -16 -72 -33 -97 -44 -62 -5 15 -32 196
-52 348 -3 22 -7 51 -9 65 -4 27 -34 250 -42 315 -2 21 -7 43 -9 47 -11 17 26
19 56 3 17 -9 42 -15 56 -13 24 3 24 3 -20 73 -25 39 -57 92 -70 120 -23 44
-24 52 -11 71 12 19 12 24 -8 42 -70 63 -364 187 -497 208 -19 3 -38 8 -41 10
-10 6 -275 24 -281 19z m356 -599 c71 -24 104 -46 117 -77 12 -30 8 -374 -6
-439 -21 -105 -110 -341 -171 -457 -99 -188 -287 -439 -448 -598 -180 -179
-309 -248 -481 -259 -58 -4 -209 136 -286 265 -21 36 -39 73 -39 81 0 9 -4 19
-9 23 -8 4 -21 61 -26 110 -2 21 25 124 66 250 129 403 254 654 372 748 41 33
105 67 125 67 16 0 121 82 200 155 52 48 71 73 67 84 -12 30 -10 34 17 36 14
1 50 12 79 24 44 19 55 21 75 10 18 -9 26 -9 38 0 30 25 71 27 166 10 52 -9
117 -24 144 -33z m-1294 -570 c-34 -90 -101 -198 -115 -185 -9 10 95 209 109
209 12 0 14 -5 6 -24z m1470 -227 c25 -58 6 -137 -64 -274 -29 -56 -34 -60
-69 -63 -26 -2 -39 1 -43 12 -6 16 17 91 62 200 66 161 89 187 114 125z m239
-172 c-12 -62 -34 -120 -47 -125 -22 -7 -25 31 -8 97 26 99 73 123 55 28z
m-2174 -230 c0 -74 -4 -139 -8 -144 -18 -17 -24 25 -22 140 3 153 3 149 18
144 9 -3 12 -40 12 -140z m1695 -20 c-50 -69 -108 -132 -115 -125 -13 13 121
182 136 172 5 -3 -4 -24 -21 -47z m-1055 -836 c56 -37 66 -46 48 -49 -22 -3
-163 83 -163 100 0 16 42 -3 115 -51z"/>
<path d="M3231 4296 c-10 -12 -15 -66 -12 -138 1 -34 3 -36 33 -35 l33 2 3 81
c2 60 0 84 -10 90 -21 13 -36 13 -47 0z"/>
</g>
</svg>
