<svg version="1.0" xmlns="http://www.w3.org/2000/svg" width="512.000000pt" height="512.000000pt" viewBox="0 0 512.000000 512.000000" preserveAspectRatio="xMidYMid meet">
<g transform="translate(0.000000,512.000000) scale(0.100000,-0.100000)" fill="#000000" stroke="none">
<path d="M4390 3285 c-173 -7 -347 -15 -386 -18 -66 -5 -133 -27 -135 -45 0
-4 -1 -35 -3 -70 -2 -59 0 -64 24 -77 20 -10 37 -11 72 -4 30 7 53 7 65 1 12
-6 51 -5 113 4 132 19 150 18 150 -4 0 -17 -13 -19 -150 -25 -147 -5 -197 -15
-169 -32 7 -5 82 -9 166 -9 95 -1 153 -5 153 -11 0 -22 -40 -252 -50 -285 -5
-19 -10 -81 -10 -137 0 -65 -4 -103 -11 -103 -13 0 -39 -62 -39 -95 0 -14 7
-28 15 -31 22 -9 18 -35 -5 -41 -20 -5 -28 -23 -10 -23 6 0 10 -17 10 -39 0
-27 -6 -43 -20 -52 -19 -13 -19 -17 -5 -61 12 -42 12 -48 0 -48 -19 0 -19 -30
0 -100 24 -91 45 -131 67 -124 11 3 29 -3 44 -15 30 -23 64 -28 64 -8 0 6 -7
59 -15 117 -21 151 -20 169 9 180 13 5 26 15 29 22 3 7 3 -32 0 -87 -7 -115
13 -207 47 -225 26 -14 26 -8 -2 108 l-22 92 38 228 c51 311 103 590 128 692
11 47 20 97 19 112 -2 36 17 44 119 52 129 11 199 27 228 51 23 20 25 25 14
49 -10 22 -9 26 4 26 20 0 30 30 13 41 -18 11 -163 9 -559 -6z m478 -42 c-10
-2 -26 -2 -35 0 -10 3 -2 5 17 5 19 0 27 -2 18 -5z m-615 -920 c3 -15 -1 -40
-9 -55 -9 -17 -12 -42 -8 -65 4 -27 1 -44 -11 -58 -15 -19 -16 -14 -10 75 7
107 14 142 25 135 4 -3 10 -17 13 -32z m-34 -285 c1 -16 -3 -28 -9 -28 -5 0
-10 21 -9 48 0 35 3 42 9 27 5 -11 9 -32 9 -47z"/>
<path d="M800 3274 c-112 -20 -206 -49 -234 -75 -37 -34 -21 -37 37 -8 l42 22
-65 -69 c-100 -107 -172 -193 -222 -264 -49 -70 -108 -181 -108 -203 0 -8 -7
-21 -16 -28 -15 -12 -16 -11 -9 11 15 52 85 191 129 260 26 40 46 74 44 75 -6
6 -102 -129 -154 -218 -76 -129 -86 -165 -81 -291 4 -84 9 -111 25 -133 11
-15 34 -58 51 -95 43 -91 108 -160 184 -198 106 -52 261 -74 349 -50 83 23
316 219 345 290 8 19 39 89 68 155 71 162 87 213 83 277 -3 53 -10 51 -23 -7
l-7 -30 -9 25 c-6 19 -49 301 -49 325 0 2 15 2 32 -2 l33 -6 -18 26 c-9 15
-24 38 -33 52 -9 14 -14 32 -10 40 7 19 -60 59 -152 90 -66 23 -183 37 -232
29z m126 -245 c100 -18 104 -23 104 -140 0 -150 -49 -277 -170 -437 -112 -148
-210 -221 -295 -222 -35 0 -47 6 -87 48 -51 51 -78 104 -78 151 0 45 47 197
89 286 43 92 88 148 141 175 46 23 125 89 125 104 0 13 54 38 70 32 7 -2 18 0
26 5 8 5 14 9 15 9 0 0 27 -5 60 -11z m-512 -276 c-3 -10 -14 -29 -25 -43
l-20 -25 13 30 c19 47 41 73 32 38z m630 -167 c-19 -41 -31 -56 -46 -56 -24 0
-21 20 18 108 l25 57 15 -27 c12 -24 11 -31 -12 -82z m112 2 c-3 -17 -8 -34
-11 -36 -11 -11 -16 9 -10 37 9 42 29 41 21 -1z m-939 -125 c-2 -21 -4 -6 -4
32 0 39 2 55 4 38 2 -18 2 -50 0 -70z m721 8 c-30 -39 -45 -40 -16 -1 12 17
26 30 31 30 5 0 -2 -13 -15 -29z m-447 -338 c31 -18 41 -41 12 -24 -29 15 -59
40 -50 41 5 0 22 -8 38 -17z"/>
<path d="M1659 3253 c-6 -15 -14 -30 -19 -33 -7 -4 -70 -747 -70 -824 0 -9 -4
-16 -10 -16 -12 0 -13 55 -1 96 5 17 5 37 0 46 -5 9 -2 50 6 99 19 106 19 119
-1 119 -12 0 -14 7 -10 28 13 68 18 142 8 142 -12 0 -15 -23 -48 -403 l-27
-307 21 -30 c30 -41 29 -86 -2 -94 -41 -10 -39 -34 6 -88 52 -61 49 -61 254
18 105 40 229 76 422 123 253 61 272 67 272 87 0 16 -5 21 -17 18 -10 -2 -38
-1 -63 4 l-45 9 60 12 c126 27 186 73 113 86 -92 16 -288 6 -420 -21 -65 -13
-132 -23 -150 -22 -18 0 -59 -7 -91 -16 -31 -10 -63 -16 -70 -13 -28 9 118 50
316 89 117 23 217 46 222 51 20 19 -377 -49 -488 -83 -34 -11 -63 -18 -64 -16
-3 3 21 297 61 731 8 87 10 154 5 159 -5 6 -18 5 -33 -4 -31 -16 -56 -7 -56
20 0 60 -61 85 -81 33z"/>
<path d="M3183 3240 c-65 -9 -145 -39 -158 -59 -5 -8 2 -10 22 -6 l28 6 -25
-18 c-83 -60 -214 -187 -251 -243 l-16 -25 5 33 c2 17 1 32 -3 32 -9 0 -68
-130 -94 -206 -42 -125 -47 -379 -11 -514 29 -108 122 -170 283 -187 31 -3 57
-10 57 -14 0 -5 -4 -9 -10 -9 -15 0 -12 -17 6 -35 25 -25 142 -11 223 26 35
16 67 29 72 29 5 0 9 -43 9 -95 0 -87 2 -95 19 -95 22 0 31 19 31 66 0 19 5
34 10 34 6 0 10 -28 10 -65 l0 -65 34 0 c26 0 36 5 41 20 3 11 17 28 31 39 13
10 24 23 24 29 0 5 7 15 16 22 11 10 15 30 13 79 -2 36 3 83 10 103 7 21 10
46 6 57 -7 24 80 319 103 344 25 28 67 47 102 47 27 0 51 22 39 35 -3 2 -36 0
-74 -5 -39 -5 -74 -5 -78 -1 -5 5 34 13 85 20 51 6 114 14 141 18 54 7 67 33
16 33 -26 0 -30 3 -24 18 15 39 9 47 -57 77 -60 27 -158 42 -158 25 0 -10 26
-20 51 -20 10 0 19 -4 19 -10 0 -5 -4 -10 -9 -10 -5 0 -87 -9 -183 -21 -171
-21 -299 -25 -363 -13 -27 5 -35 2 -44 -14 -9 -16 -4 -28 26 -68 49 -65 50
-66 106 -60 26 3 47 1 47 -4 0 -5 -21 -12 -47 -16 -100 -14 -145 -52 -88 -74
14 -5 25 -14 25 -20 0 -5 23 -10 50 -10 28 0 50 -3 50 -6 0 -4 -39 -49 -86
-100 -47 -52 -82 -94 -77 -94 15 0 106 80 170 148 33 37 64 64 67 61 4 -4 -21
-41 -55 -83 -105 -131 -218 -217 -283 -215 -30 0 -30 1 -8 11 30 15 28 35 -7
52 -81 43 -136 123 -147 218 -5 44 0 72 25 154 36 117 95 209 200 315 121 120
215 140 324 66 15 -10 35 -16 43 -13 10 4 18 -1 21 -14 3 -13 14 -20 29 -20
22 0 24 4 24 45 0 54 27 65 37 15 3 -17 12 -30 20 -30 9 0 12 7 9 18 -3 9 -10
44 -15 77 -8 44 -19 67 -42 91 -37 39 -139 86 -194 91 -22 2 -56 6 -75 8 -19
2 -63 -1 -97 -5z m132 -130 c-3 -5 -26 -10 -50 -10 -24 0 -47 5 -50 10 -4 6
15 10 50 10 35 0 54 -4 50 -10z m-565 -285 c-6 -15 -13 -25 -16 -23 -2 3 1 17
7 32 16 34 23 27 9 -9z m570 -665 c0 -10 -38 -32 -85 -50 -36 -14 -31 -5 18
29 43 31 67 38 67 21z m-197 -137 c-13 -2 -33 -2 -45 0 -13 2 -3 4 22 4 25 0
35 -2 23 -4z"/>
<path d="M2920 3100 c-25 -22 -40 -40 -35 -40 6 0 29 18 50 40 50 51 43 51
-15 0z"/>
<path d="M2824 2998 l-19 -23 23 19 c21 18 27 26 19 26 -2 0 -12 -10 -23 -22z"/>
<path d="M1230 2920 c0 -29 4 -40 15 -40 11 0 15 11 15 40 0 29 -4 40 -15 40
-11 0 -15 -11 -15 -40z"/>
<path d="M3580 2776 c0 -2 6 -9 14 -15 10 -9 16 -8 26 4 11 13 8 15 -14 15
-14 0 -26 -2 -26 -4z"/>
<path d="M3075 2220 c-3 -5 -2 -10 4 -10 5 0 13 5 16 10 3 6 2 10 -4 10 -5 0
-13 -4 -16 -10z"/>
</g>
</svg>
