<svg version="1.0" xmlns="http://www.w3.org/2000/svg" viewBox="0 0 1286.000000 400.000000" preserveAspectRatio="xMidYMid meet">
<g transform="translate(0.000000,400.000000) scale(0.100000,-0.100000)"
fill="#fff" stroke="none">
<path d="M11830 3944 c-333 -13 -841 -32 -1130 -43 -450 -17 -536 -23 -602
-40 -126 -33 -178 -69 -199 -140 -11 -38 -11 -43 10 -65 l23 -24 -21 -102
c-12 -57 -21 -104 -21 -105 0 -2 29 -22 65 -45 l64 -42 125 21 c154 26 164 26
192 0 l23 -22 333 42 c183 23 337 41 341 41 4 0 7 -28 5 -62 l-3 -63 -316 0
c-298 0 -318 -1 -338 -19 -19 -17 -21 -17 -21 -3 0 21 -10 21 -102 2 -120 -25
-117 -23 -111 -44 6 -22 17 -24 358 -47 236 -16 242 -16 384 5 79 12 145 20
146 19 4 -4 -20 -176 -56 -413 -32 -210 -68 -379 -94 -441 -12 -30 -15 -87
-15 -310 l0 -274 -34 -14 c-55 -23 -95 -140 -96 -283 l0 -42 42 -3 c48 -4 56
-23 32 -74 -15 -32 -55 -54 -95 -54 -12 0 -19 -7 -19 -20 0 -17 7 -20 40 -20
l40 0 0 -108 0 -109 -60 -18 c-33 -10 -60 -23 -60 -29 0 -7 15 -65 34 -131 45
-158 46 -161 21 -157 -11 2 -29 12 -40 23 l-21 18 8 -94 c11 -137 52 -288 128
-467 36 -86 54 -96 97 -57 l22 22 73 -55 c92 -69 105 -76 148 -73 34 2 34 2
32 46 -2 24 -21 186 -43 359 -21 173 -39 327 -39 342 0 61 38 98 100 98 29 0
30 2 30 45 0 38 3 45 20 45 25 0 25 11 -1 -252 -21 -213 -21 -220 -4 -309 17
-89 56 -223 77 -264 22 -43 51 -65 85 -65 28 0 33 3 29 18 -3 9 -32 133 -65
275 l-59 258 38 242 c215 1346 387 2258 465 2460 6 13 2 17 -15 17 -14 0 -20
5 -18 13 3 6 13 35 22 63 l16 50 168 22 c92 12 219 24 282 27 223 12 390 59
472 133 57 51 58 72 9 142 l-42 60 66 0 66 0 -3 42 c-3 40 -5 42 -53 59 -66
23 -176 22 -935 -7z m778 -116 c-3 -21 -8 -22 -78 -21 -41 1 -78 2 -82 2 -5 1
-8 10 -8 21 0 18 7 20 86 20 83 0 85 -1 82 -22z m-1689 -2395 c37 -141 38
-126 -8 -218 -46 -93 -50 -124 -21 -150 26 -24 25 -53 -2 -82 l-21 -23 21 0
c21 0 19 -5 -21 -65 -42 -62 -44 -69 -41 -123 3 -31 13 -96 23 -144 20 -96 19
-99 -39 -95 -22 2 -25 6 -23 37 8 101 74 840 79 868 7 47 40 44 53 -5z"/>
<path d="M4062 3897 c-13 -13 -22 -36 -22 -54 0 -36 -34 -83 -61 -83 -10 0
-19 -3 -19 -6 0 -3 -13 -182 -30 -397 -16 -216 -52 -693 -80 -1062 -63 -846
-58 -795 -81 -795 -17 0 -19 9 -19 109 0 75 6 136 20 192 l20 83 -22 23 -21
22 42 265 c22 145 41 269 41 275 0 6 -17 11 -40 11 -25 0 -40 5 -40 13 0 6 9
71 20 142 11 72 20 172 20 223 0 85 -2 92 -20 92 -21 0 -25 -14 -34 -130 -3
-36 -40 -445 -81 -910 -41 -465 -75 -852 -75 -860 0 -9 28 -54 63 -101 62 -84
62 -85 61 -149 l-1 -65 -34 -6 c-76 -14 -113 -42 -129 -98 -11 -39 -4 -61 19
-61 10 0 55 -47 105 -111 l89 -111 66 5 c55 4 138 32 501 171 l435 167 465
113 c256 63 574 140 708 172 l242 59 0 64 0 64 -23 -21 -24 -22 -137 20 c-166
24 -194 25 -218 3 -10 -9 -21 -13 -24 -10 -12 11 18 37 41 37 37 0 252 38 345
61 97 24 194 66 228 98 24 24 32 91 10 91 -7 0 -71 9 -143 20 -170 26 -284 25
-418 -1 l-108 -22 -15 21 c-20 29 -61 28 -92 0 -14 -13 -23 -18 -19 -13 20 36
-19 31 -383 -46 -206 -43 -385 -81 -397 -84 -18 -4 -23 -1 -23 15 0 11 -3 20
-6 20 -4 0 -105 -27 -225 -60 -120 -33 -224 -60 -230 -60 -26 0 28 44 86 71
154 70 607 174 1175 269 224 38 220 37 220 61 0 26 -7 26 -302 -21 -608 -95
-990 -176 -1153 -244 -19 -8 -35 -13 -35 -10 0 3 9 103 20 222 11 119 38 422
60 672 48 544 106 1187 121 1358 11 120 11 124 -9 144 l-21 21 -64 -41 c-48
-32 -73 -42 -104 -42 l-40 0 -11 91 c-6 51 -19 104 -30 122 -17 30 -23 32 -78
35 -52 2 -63 0 -82 -21z"/>
<path d="M1750 3896 c-47 -7 -155 -28 -240 -46 -247 -52 -386 -111 -430 -182
-50 -83 -14 -77 167 28 l148 85 -181 -183 c-514 -518 -818 -941 -934 -1297
-22 -69 -32 -87 -49 -89 -32 -5 -27 24 25 151 106 259 231 489 391 720 41 59
73 115 71 124 -7 37 -371 -480 -496 -704 -80 -144 -114 -221 -152 -341 -37
-118 -39 -188 -9 -395 l21 -148 -21 -22 -21 -23 85 -127 c47 -70 96 -155 109
-190 104 -276 287 -482 539 -604 153 -75 337 -118 565 -134 155 -11 170 -10
279 11 102 20 124 29 206 78 279 169 578 422 738 624 55 71 65 88 49 88 -17 0
-15 9 27 98 189 403 253 551 313 734 49 148 60 205 60 326 0 103 -2 113 -17
110 -27 -5 -53 -67 -60 -142 -5 -59 -8 -66 -27 -66 -21 0 -24 16 -84 463 -35
254 -63 465 -62 469 0 15 40 2 63 -20 22 -21 97 -32 97 -14 0 4 -36 61 -80
127 -85 127 -95 159 -60 190 21 19 20 19 -42 58 -123 79 -331 171 -458 202
-184 47 -390 63 -530 41z m94 -666 c13 0 31 10 42 21 17 20 26 21 100 15 94
-7 253 -45 310 -74 79 -40 77 -34 75 -292 -2 -204 -5 -240 -26 -330 -51 -210
-158 -455 -280 -639 -254 -387 -502 -649 -715 -756 -89 -45 -159 -65 -227 -65
-58 0 -70 4 -121 39 -65 44 -173 154 -220 223 -61 89 -102 206 -102 291 0 83
111 438 219 700 103 250 234 437 351 497 14 7 44 18 68 24 32 9 78 41 187 135
l145 124 -20 22 c-11 12 -20 30 -20 40 0 18 1 18 20 0 21 -19 23 -18 103 22
74 37 82 39 85 22 2 -12 12 -19 26 -19z m-1146 -765 c-45 -89 -68 -125 -80
-125 -10 0 -18 2 -18 5 0 3 27 59 60 125 47 93 65 120 80 120 18 0 13 -14 -42
-125z m1741 -188 l22 -63 -62 -145 c-34 -79 -67 -147 -73 -151 -13 -9 -116 -8
-116 1 0 3 37 99 83 213 70 176 85 208 103 208 16 0 25 -13 43 -63z m275 -139
c-2 -18 -12 -64 -21 -103 -15 -59 -22 -71 -40 -73 -21 -3 -23 1 -23 40 0 24 9
72 21 106 18 52 24 62 44 62 21 0 23 -4 19 -32z m-2504 -308 c0 -163 -1 -170
-20 -170 -19 0 -20 7 -20 170 0 163 1 170 20 170 19 0 20 -7 20 -170z m1938
-28 c-103 -131 -113 -142 -130 -142 -10 0 -18 2 -18 5 0 3 36 50 80 105 54 67
87 100 101 100 17 0 12 -11 -33 -68z m-1229 -933 c73 -44 101 -67 101 -81 0
-19 -2 -19 -42 4 -136 76 -176 104 -175 121 1 9 4 17 8 17 4 0 52 -28 108 -61z"/>
<path d="M8225 3823 c-264 -15 -481 -80 -564 -167 -40 -42 -35 -43 44 -16 75
26 95 26 95 0 0 -15 -8 -22 -29 -26 -61 -12 -407 -305 -558 -472 -156 -174
-249 -324 -275 -444 -11 -51 -15 -58 -36 -58 -34 0 -27 20 65 191 45 83 79
161 83 186 6 40 5 43 -15 43 -17 0 -28 -11 -43 -42 -139 -291 -188 -411 -237
-583 -51 -178 -82 -510 -71 -765 7 -178 47 -467 76 -561 89 -288 348 -432 833
-465 76 -5 87 -8 87 -24 0 -15 -9 -19 -42 -22 -56 -4 -59 -22 -11 -82 l38 -48
165 5 c213 6 330 39 476 132 41 26 65 35 98 35 l44 0 7 -137 c5 -87 3 -177 -4
-243 -6 -58 -11 -111 -11 -118 0 -10 16 -12 63 -10 l62 3 17 140 c9 77 17 143
17 148 1 4 9 7 19 7 17 0 18 -11 14 -147 -3 -106 0 -159 10 -188 l13 -40 78 0
79 0 16 48 c21 58 72 113 131 139 43 18 44 19 25 39 -19 21 -19 22 30 65 l49
43 -6 167 -6 166 34 108 c39 118 42 151 20 170 -8 7 -15 19 -15 27 0 7 43 159
96 336 52 177 101 348 109 379 42 182 165 279 376 295 l78 6 6 39 c4 22 5 41
3 42 -1 2 -95 -7 -208 -19 -113 -12 -208 -20 -212 -18 -11 6 -10 31 0 37 5 3
166 24 358 47 192 23 355 43 362 45 7 2 12 20 12 44 l0 40 -80 0 c-71 0 -80 2
-80 18 0 10 11 29 25 42 33 31 33 73 0 106 -14 14 -60 41 -101 60 -82 38 -307
114 -338 114 -11 0 -30 -10 -43 -22 l-23 -21 -23 21 c-29 28 -57 29 -57 2 0
-30 42 -51 125 -63 59 -9 75 -14 75 -28 0 -20 28 -16 -485 -74 -220 -25 -454
-51 -520 -59 -109 -13 -138 -13 -310 4 -250 25 -275 25 -275 2 0 -11 -9 -27
-20 -37 -12 -10 -19 -24 -18 -30 2 -7 50 -75 108 -153 l105 -141 123 -1 c109
0 127 2 149 20 15 11 27 19 28 18 1 -2 0 -19 -2 -39 l-5 -37 -96 -12 c-179
-22 -283 -50 -324 -87 -37 -33 -12 -113 36 -113 39 0 86 -29 92 -57 l5 -28
122 3 c67 2 132 0 144 -5 19 -7 -4 -34 -232 -273 -140 -146 -254 -268 -255
-272 -2 -35 115 45 277 191 93 84 202 199 322 339 94 109 129 68 39 -47 -258
-330 -513 -574 -687 -658 -64 -31 -89 -38 -160 -41 -76 -4 -84 -3 -78 12 4 10
7 20 7 22 0 2 18 4 39 4 42 0 51 11 51 61 0 23 -6 32 -27 40 -58 22 -192 121
-256 188 -44 47 -79 97 -106 153 -58 117 -74 190 -75 333 l-1 120 69 230 c77
262 94 294 282 544 438 583 765 713 1133 450 62 -45 72 -46 112 -18 l29 20 0
-38 c0 -21 7 -49 16 -61 14 -20 23 -23 77 -20 l62 3 0 45 c0 25 -4 80 -9 123
l-8 77 35 0 c50 0 70 -28 75 -106 l4 -64 39 0 c22 0 39 4 39 8 0 5 -11 60 -25
122 -14 62 -25 132 -25 156 0 184 -191 338 -553 448 l-112 34 -6 -21 c-7 -28
-46 -25 -66 3 -15 21 -50 23 -208 13z m233 -355 c-3 -22 -6 -23 -132 -24 -149
-1 -166 1 -166 27 0 18 10 19 151 19 150 0 150 0 147 -22z m-18 -2529 l0 -40
-97 -46 c-200 -93 -248 -114 -238 -104 47 47 295 230 313 230 19 1 22 -4 22
-40z m-460 -359 c0 -19 -7 -20 -109 -20 -104 0 -110 1 -108 20 1 19 8 20 109
20 101 0 108 -1 108 -20z"/>
<path d="M7400 3448 c-137 -123 -154 -141 -148 -159 3 -8 200 161 293 252 26
25 27 29 10 29 -11 0 -79 -53 -155 -122z"/>
<path d="M7155 3190 c-51 -45 -92 -90 -93 -102 -3 -19 2 -17 40 16 100 89 148
138 148 152 0 8 -1 14 -2 14 -2 0 -43 -36 -93 -80z"/>
<path d="M2885 2955 l0 -105 43 0 42 0 0 105 0 105 -42 0 -43 0 0 -105z"/>
<path d="M9144 2591 c-2 -2 10 -21 27 -42 l31 -39 44 36 c24 20 44 39 44 43 0
7 -139 9 -146 2z"/>
<path d="M7821 1110 c-40 -37 -42 -40 -19 -40 15 0 39 15 63 40 32 33 36 40
20 40 -11 -1 -40 -19 -64 -40z"/>
</g>
</svg>
