<svg version="1.0" xmlns="http://www.w3.org/2000/svg" width="64.000000pt" height="64.000000pt" viewBox="0 0 192.000000 192.000000" preserveAspectRatio="xMidYMid meet">
<g transform="translate(0.000000,192.000000) scale(0.100000,-0.100000)" fill="#ffffff" stroke="none">
<path d="M505 1493 c-102 -21 -154 -37 -175 -53 -34 -26 -19 -35 22 -14 l33
17 -20 -24 c-11 -13 -52 -58 -90 -100 -84 -90 -169 -215 -193 -281 -9 -27 -20
-48 -24 -48 -5 0 -8 3 -8 6 0 14 71 156 104 208 20 32 35 60 33 62 -8 8 -150
-218 -169 -269 -26 -68 -21 -198 9 -248 11 -19 35 -63 54 -98 61 -117 169
-174 329 -175 l95 -1 76 53 c79 55 199 171 199 193 0 6 20 55 44 108 54 117
79 200 74 243 l-4 33 -13 -33 c-7 -18 -15 -31 -17 -29 -2 1 -10 50 -19 108 -8
57 -17 119 -20 137 -6 31 -5 32 21 26 l28 -7 -24 33 c-13 18 -24 43 -25 54 -4
55 -218 121 -320 99z m168 -209 c39 -15 47 -90 22 -189 -54 -209 -251 -444
-372 -445 -32 0 -97 68 -118 123 l-17 46 33 102 c19 56 50 131 69 167 30 54
46 72 91 98 29 18 68 48 85 68 21 25 42 38 64 41 18 2 34 6 36 8 5 5 80 -8
107 -19z m-478 -223 c-21 -43 -29 -39 -8 4 9 19 18 33 21 31 2 -2 -4 -18 -13
-35z m530 -61 c8 -26 -29 -110 -49 -110 -21 0 -20 9 7 75 24 59 32 66 42 35z
m78 -62 c-3 -16 -9 -28 -14 -28 -11 0 -11 3 1 36 13 33 20 29 13 -8z m-756
-95 c-2 -16 -4 -3 -4 27 0 30 2 43 4 28 2 -16 2 -40 0 -55z m583 7 c-12 -16
-24 -30 -26 -30 -7 0 5 20 24 43 24 27 25 20 2 -13z m-359 -281 c19 -16 20
-18 4 -10 -34 17 -51 31 -39 31 7 0 22 -9 35 -21z"/>
<path d="M1204 1473 c-18 -25 -23 -63 -44 -353 -12 -179 -27 -332 -31 -340 -9
-16 -6 97 6 218 5 42 4 72 -2 72 -5 0 -7 33 -5 73 2 39 2 70 -1 67 -4 -3 -18
-135 -32 -293 l-26 -287 20 -29 c27 -38 26 -55 -4 -69 -34 -16 -31 -37 10 -80
l35 -37 107 39 c194 69 246 85 428 128 142 34 180 47 183 61 3 14 -5 17 -50
18 -57 1 -53 4 47 29 52 12 84 35 70 49 -20 20 -261 14 -360 -8 -49 -11 -106
-21 -125 -21 -19 0 -57 -7 -84 -15 -27 -8 -51 -13 -54 -11 -13 14 121 52 308
86 126 23 145 28 138 35 -7 7 -294 -42 -374 -65 -38 -10 -70 -17 -72 -16 -1 2
11 157 28 345 36 407 35 385 13 376 -50 -21 -61 -18 -65 16 -4 45 -36 51 -64
12z"/>
<path d="M860 1211 c0 -21 5 -31 16 -31 11 0 14 8 12 27 -4 39 -28 42 -28 4z"/>
</g>
</svg>
