<svg version="1.0" xmlns="http://www.w3.org/2000/svg" viewBox="0 0 630.000000 630.000000" preserveAspectRatio="xMidYMid meet">
<g transform="translate(0.000000,630.000000) scale(0.100000,-0.100000)"
fill="#ffffff" stroke="none">
<path d="M4325 5681 c-16 -10 -39 -28 -50 -40 -17 -19 -26 -21 -66 -16 l-47 7
-57 -77 c-141 -191 -167 -239 -295 -540 -98 -230 -129 -299 -136 -293 -7 8 32
107 116 293 115 256 160 374 160 423 0 49 -21 22 -64 -82 -9 -21 -47 -75 -84
-120 -38 -44 -107 -133 -154 -196 -126 -167 -341 -442 -432 -551 -44 -51 -177
-224 -296 -384 -119 -159 -256 -333 -305 -385 -83 -90 -164 -188 -284 -345
l-54 -70 69 70 c38 39 89 93 114 120 74 84 13 -2 -94 -133 -143 -175 -205
-282 -163 -282 31 0 67 24 93 61 15 22 31 39 35 39 10 0 49 -73 49 -91 0 -7
-10 -23 -22 -36 l-21 -23 27 -81 c52 -158 116 -309 201 -476 53 -103 148 -322
247 -568 164 -409 267 -645 367 -840 52 -103 56 -108 59 -76 5 47 -37 159
-125 335 -101 202 -104 212 -55 161 32 -32 60 -89 147 -290 132 -309 260 -574
280 -581 21 -8 60 3 80 23 32 31 15 100 -63 256 -73 147 -89 187 -75 187 10 0
65 -94 128 -217 30 -60 51 -90 58 -86 35 20 147 119 147 129 0 6 -39 99 -86
205 -48 107 -137 309 -199 449 -62 140 -134 302 -161 360 -26 58 -98 242 -160
410 -98 267 -376 965 -389 979 -3 2 -30 -22 -60 -54 -30 -33 -57 -56 -60 -53
-11 11 21 60 109 169 83 103 85 105 121 101 47 -6 59 6 180 172 52 72 140 182
195 245 55 63 161 201 237 305 75 105 184 256 242 336 58 80 198 262 311 405
230 289 294 374 369 489 55 84 59 107 12 62 -33 -32 -49 -30 -98 12 l-32 27
31 50 c25 41 50 125 37 125 -2 0 -17 -8 -34 -19z"/>
<path d="M5960 5250 c-14 -4 -49 -17 -78 -29 -30 -12 -158 -40 -285 -62 -371
-64 -528 -103 -747 -184 -63 -24 -155 -51 -204 -60 -130 -24 -156 -41 -156
-101 0 -25 13 -31 80 -36 l35 -3 -60 -30 c-68 -34 -91 -67 -101 -138 -7 -46
-6 -47 25 -58 17 -6 31 -16 31 -22 0 -7 -13 -79 -29 -162 -16 -82 -44 -253
-61 -380 -18 -126 -57 -401 -86 -610 -30 -209 -77 -562 -105 -785 -27 -223
-61 -470 -74 -550 -57 -336 -79 -533 -66 -590 6 -31 11 -35 37 -34 16 1 59 19
94 41 57 34 69 46 94 100 34 72 58 86 168 97 36 4 73 13 81 19 14 11 61 258
146 772 67 401 104 746 83 759 -25 15 -45 -55 -102 -355 -33 -173 -62 -318
-64 -324 -3 -5 -5 22 -5 60 -1 111 18 281 44 398 14 59 36 155 50 215 13 59
29 148 35 199 5 50 19 129 30 176 11 46 27 151 35 233 16 156 33 235 60 269
15 19 15 18 10 -15 -13 -92 -26 -232 -22 -237 6 -6 32 76 46 145 6 29 18 139
26 245 18 228 23 280 36 330 10 39 23 47 33 21 7 -19 39 -15 151 18 38 11 126
32 194 47 70 14 126 31 129 39 2 6 -1 12 -7 12 -5 0 -22 5 -38 11 -27 11 -26
12 47 35 89 29 228 64 252 64 10 0 15 -6 13 -12 -2 -7 -14 -155 -25 -328 -23
-357 -43 -544 -66 -634 -22 -85 -31 -89 -23 -9 42 382 45 472 18 489 -18 11
-49 -84 -69 -208 -11 -68 -38 -296 -60 -508 -74 -698 -126 -1088 -170 -1265
-21 -88 -44 -196 -50 -240 -19 -144 -19 -145 -40 -145 -13 0 -20 -7 -20 -20 0
-26 4 -26 146 11 78 20 156 32 227 36 59 3 110 10 113 14 3 5 -2 19 -11 32
-14 22 -14 25 1 38 23 19 44 72 44 111 0 18 11 57 25 87 19 40 31 95 46 215
11 89 33 249 49 356 38 253 60 467 60 578 0 85 -1 89 -25 100 -14 6 -25 18
-25 25 0 19 54 314 85 467 48 235 65 345 120 770 31 234 58 437 61 453 5 22 2
27 -14 27 -28 0 -53 -33 -59 -79 -6 -44 -16 -48 -88 -32 l-30 6 48 47 c57 56
63 88 15 87 -18 0 -44 -4 -58 -9z"/>
<path d="M1518 5109 l-96 -51 -4 -172 c-5 -195 -12 -220 -98 -366 -28 -47 -73
-132 -101 -189 -28 -57 -103 -194 -167 -305 -63 -110 -232 -430 -375 -711
-142 -280 -276 -541 -297 -580 -164 -306 -200 -383 -200 -427 0 -25 -7 -64
-15 -88 l-15 -42 38 -43 c34 -40 38 -42 55 -28 9 9 37 50 61 92 108 186 98
124 -17 -107 l-82 -164 35 -29 c27 -23 37 -26 45 -17 32 36 317 499 415 673
62 110 163 290 226 400 130 230 141 254 96 210 -17 -16 -70 -100 -117 -185
-48 -85 -91 -159 -97 -165 -27 -27 249 497 322 612 47 73 109 177 138 230 29
54 61 109 72 123 l20 25 -6 -62 c-7 -71 0 -113 20 -113 20 0 23 23 42 270 9
118 19 231 23 250 7 33 8 31 20 -35 6 -38 15 -182 19 -320 7 -235 9 -252 30
-280 19 -27 23 -54 37 -235 8 -113 26 -315 40 -450 32 -318 45 -506 45 -656
l0 -120 30 -29 c35 -33 37 -43 13 -61 -27 -21 0 -34 70 -34 34 0 71 -7 90 -17
17 -9 62 -18 98 -21 61 -4 67 -3 73 16 4 13 17 22 34 24 39 4 40 34 3 56 -17
9 -33 24 -36 32 -3 9 -12 216 -20 460 -9 245 -18 459 -20 475 -32 207 -61 535
-85 965 -21 388 -47 747 -56 792 -3 15 -10 31 -16 34 -6 4 -7 -27 -3 -95 5
-66 4 -101 -3 -101 -22 0 -42 72 -52 186 -32 365 -47 424 -109 424 -14 0 -69
-23 -123 -51z"/>
</g>
</svg>
