<svg version="1.0" xmlns="http://www.w3.org/2000/svg" viewBox="0 0 1858.000000 370.000000" preserveAspectRatio="xMidYMid meet">
<g transform="translate(0.000000,370.000000) scale(0.100000,-0.100000)"
fill="#ffffff" stroke="none">
<path d="M17731 3393 c-133 -158 -241 -296 -241 -306 0 -11 81 64 223 209 228
233 284 271 171 117 -32 -43 -115 -154 -184 -248 -69 -93 -251 -340 -404 -547
-283 -384 -316 -420 -316 -348 0 61 81 195 266 437 113 149 140 193 115 193
-13 0 -90 -64 -129 -108 -40 -44 -164 -230 -217 -325 l-38 -69 -29 54 c-72
127 -249 497 -296 615 -55 141 -92 268 -92 320 l0 33 -63 0 c-55 0 -69 -4
-115 -35 -54 -37 -72 -38 -72 -5 0 38 -41 128 -65 144 -34 23 -117 21 -138 -2
-10 -10 -17 -22 -17 -26 0 -3 16 -47 35 -96 19 -49 35 -91 35 -93 0 -3 -17 -4
-37 -3 l-38 1 2 -45 c1 -33 75 -234 271 -734 281 -714 276 -698 241 -747 -18
-24 21 -324 41 -324 11 0 16 14 18 58 3 52 5 57 26 57 19 0 26 -9 41 -59 17
-57 17 -64 -6 -292 -21 -204 -26 -234 -41 -237 -16 -3 -18 6 -18 85 0 48 7
125 16 171 9 45 14 85 11 88 -3 3 -29 -2 -57 -11 l-52 -17 21 -22 c26 -28 27
-50 1 -76 -24 -24 -26 -57 -3 -82 15 -17 15 -18 -4 -18 -11 0 -26 7 -33 15 -7
9 -14 14 -16 12 -6 -5 -44 -442 -44 -495 0 -38 8 -54 60 -121 l60 -78 0 -155
0 -155 133 -17 c72 -9 142 -19 154 -21 17 -4 26 4 45 38 136 240 178 318 178
333 0 10 -9 28 -21 40 l-21 22 40 199 c25 125 42 238 45 308 23 467 337 1067
943 1800 72 88 195 230 273 315 85 94 141 163 141 176 0 11 -9 29 -20 39 l-20
18 20 22 c38 40 27 55 -39 55 -56 0 -59 -1 -64 -27 -15 -73 -130 -175 -189
-168 -17 2 -31 5 -33 7 -2 2 40 54 92 116 57 68 93 118 89 127 -9 26 -87 74
-168 105 -115 44 -131 46 -157 19 l-21 -23 0 37 c0 33 -3 37 -24 37 -20 0 -71
-56 -265 -287z m216 -443 c-226 -303 -422 -608 -603 -937 l-89 -163 -42 0
c-38 0 -41 2 -36 23 25 107 235 427 577 882 204 272 265 345 286 345 15 0 -5
-32 -93 -150z m-1172 -2673 c1 -66 -1 -77 -16 -77 -19 0 -29 37 -29 105 0 46
6 57 29 53 12 -3 16 -20 16 -81z"/>
<path d="M14740 3615 c-1143 -45 -1177 -47 -1268 -94 -48 -25 -80 -60 -92
-101 -8 -29 -6 -37 10 -55 21 -22 20 -33 -15 -198 -2 -12 14 -29 55 -57 l59
-40 135 22 135 22 24 -22 23 -22 275 35 c151 19 291 38 312 41 l37 6 0 -61 0
-61 -293 0 c-281 0 -294 -1 -315 -20 l-22 -21 0 21 c0 24 7 24 -100 2 -71 -15
-85 -21 -88 -38 -3 -24 -6 -23 358 -46 175 -10 209 -10 323 6 71 10 130 16
133 14 7 -7 -54 -436 -82 -582 -14 -70 -34 -153 -46 -183 -18 -50 -20 -77 -20
-306 l0 -252 -29 -12 c-54 -22 -84 -106 -91 -253 l-2 -55 39 0 c39 0 40 -1 37
-34 -3 -46 -27 -70 -74 -77 -28 -5 -38 -11 -38 -25 0 -13 9 -19 38 -21 l37 -3
0 -95 0 -94 -50 -19 c-28 -10 -53 -22 -57 -26 -5 -4 8 -62 27 -128 19 -67 35
-127 35 -132 0 -17 -31 -13 -52 6 -17 15 -18 14 -18 -19 0 -99 56 -316 123
-475 33 -80 52 -91 91 -54 21 19 22 19 98 -40 65 -50 84 -59 118 -59 22 0 40
4 40 10 0 5 -18 154 -40 332 -22 178 -40 337 -40 354 0 44 29 75 76 83 37 6
39 9 44 46 5 37 18 50 35 34 3 -4 -4 -98 -15 -210 -24 -220 -23 -242 15 -391
28 -110 65 -192 94 -208 25 -13 61 -13 61 0 0 5 -25 114 -55 242 -30 128 -55
245 -55 259 0 63 205 1291 295 1764 57 303 131 634 155 697 18 48 18 48 -2 48
-13 0 -18 5 -15 14 3 8 11 33 18 56 7 23 18 44 23 46 35 12 291 44 355 44 246
1 466 72 523 168 17 29 17 30 -22 86 l-39 56 59 0 60 0 0 39 c0 41 -1 42 -89
70 -43 14 42 16 -1251 -34z m1140 -95 c0 -19 -5 -21 -77 -18 -64 3 -77 6 -79
21 -2 15 7 17 77 17 73 0 79 -2 79 -20z m-1547 -2254 l20 -78 -39 -80 c-40
-81 -43 -110 -18 -139 16 -18 19 -69 4 -69 -5 0 -10 -7 -10 -16 0 -8 5 -12 10
-9 17 11 11 -2 -29 -65 -44 -68 -46 -92 -17 -228 22 -102 22 -102 -20 -102
l-37 0 6 73 c14 180 69 773 73 785 2 8 11 12 20 10 12 -2 23 -27 37 -82z"/>
<path d="M3727 3592 c-9 -10 -17 -29 -17 -43 0 -35 -36 -89 -60 -89 -11 0 -20
-3 -20 -7 0 -5 -23 -305 -50 -668 -27 -363 -62 -830 -77 -1037 -27 -366 -28
-377 -48 -374 -18 3 -20 11 -21 92 0 56 7 121 19 176 20 85 20 88 2 108 -18
20 -18 27 18 268 21 136 37 250 37 255 0 4 -16 7 -35 7 -42 0 -42 2 -19 140
23 138 27 280 8 287 -9 3 -19 2 -23 -3 -5 -5 -43 -403 -86 -885 l-77 -876 60
-81 c57 -77 61 -85 61 -136 0 -53 -1 -55 -32 -62 -80 -17 -127 -60 -127 -116
0 -31 4 -38 19 -38 13 0 47 -34 96 -95 42 -52 82 -96 88 -96 91 -9 115 -2 523
154 l410 157 374 90 c206 50 496 120 644 156 148 35 271 66 273 68 2 2 3 28 1
57 -3 49 -4 51 -19 36 -15 -15 -27 -14 -150 4 -163 23 -178 23 -201 2 -16 -14
-18 -14 -18 0 0 17 2 18 175 47 136 22 206 40 285 69 90 34 118 55 126 96 3
20 5 38 3 40 -2 2 -56 10 -119 19 -159 22 -315 22 -423 1 -87 -18 -88 -18
-110 3 -26 24 -48 24 -77 -3 -18 -16 -20 -16 -20 -2 0 10 -5 17 -11 17 -6 0
-171 -34 -366 -75 -196 -41 -360 -75 -365 -75 -5 0 -8 8 -6 18 4 21 15 23
-222 -42 -107 -30 -197 -52 -200 -49 -12 11 55 53 130 82 150 58 624 164 1048
233 168 27 192 34 192 50 0 25 -22 24 -261 -12 -449 -67 -895 -158 -1042 -214
l-67 -25 0 29 c0 16 16 204 35 417 19 213 55 620 80 903 25 283 52 589 60 679
15 161 15 165 -4 185 -20 19 -20 19 -84 -22 -48 -32 -72 -41 -98 -39 l-34 2
-6 82 c-4 53 -13 93 -26 115 -17 30 -24 33 -74 36 -44 2 -59 -1 -72 -16z"/>
<path d="M1650 3593 c-14 -2 -81 -13 -150 -24 -150 -24 -290 -59 -384 -97
-101 -39 -184 -123 -146 -147 6 -4 36 8 68 26 151 84 178 99 186 99 5 0 -65
-75 -155 -168 -90 -92 -197 -206 -238 -252 -41 -47 -88 -101 -105 -120 -87
-96 -265 -345 -350 -487 -50 -83 -117 -231 -146 -320 -18 -56 -28 -73 -42 -73
-30 0 -22 38 42 185 98 226 220 447 347 628 30 43 53 86 51 95 -5 28 -252
-315 -395 -549 -104 -170 -157 -282 -200 -420 -22 -72 -22 -244 0 -377 16 -96
16 -105 1 -131 l-17 -28 79 -119 c44 -65 92 -153 108 -194 131 -338 419 -559
820 -629 177 -31 343 -35 452 -12 104 21 105 22 239 109 201 130 380 276 526
430 113 119 158 180 141 191 -9 6 9 53 66 172 43 90 98 209 122 264 23 55 50
118 61 141 23 53 87 242 105 313 8 30 17 103 21 163 6 104 5 108 -14 108 -31
0 -44 -22 -55 -97 -14 -91 -15 -94 -33 -87 -17 7 -19 14 -35 139 -6 50 -15
119 -21 155 -5 36 -23 166 -40 290 -16 124 -32 237 -35 253 -4 22 -2 27 13 27
10 0 29 -9 43 -20 25 -20 75 -27 84 -12 2 4 -29 58 -70 119 -41 62 -74 120
-74 129 0 10 7 25 16 35 9 10 13 22 10 27 -10 16 -185 113 -270 150 -94 40
-218 76 -331 96 -85 15 -253 26 -295 19z m230 -598 c158 -28 254 -67 280 -114
6 -12 10 -95 10 -205 0 -150 -4 -202 -20 -273 -44 -191 -147 -443 -240 -588
-332 -516 -616 -773 -885 -800 l-71 -7 -59 44 c-169 125 -295 329 -295 478 0
70 141 495 226 685 121 270 230 400 363 435 33 9 76 39 172 122 122 105 142
129 119 143 -5 3 -10 13 -10 21 0 11 6 13 22 9 14 -5 43 3 90 26 64 31 70 32
79 16 13 -23 32 -22 54 3 22 24 51 25 165 5z m-1210 -621 c0 -4 -23 -54 -52
-112 -48 -95 -70 -124 -84 -109 -5 4 89 207 103 220 8 9 33 9 33 1z m1549
-258 c29 -62 25 -94 -29 -221 -29 -66 -57 -126 -62 -132 -14 -18 -97 -17 -104
1 -4 12 24 89 118 314 33 80 52 89 77 38z m261 -151 c0 -38 -32 -159 -43 -167
-18 -12 -37 4 -37 30 0 15 10 57 21 94 17 52 26 68 40 68 14 0 19 -7 19 -25z
m-2312 -289 c-3 -134 -5 -151 -20 -154 -17 -3 -18 9 -18 151 0 84 3 156 6 160
3 3 12 3 20 0 12 -4 14 -33 12 -157z m1825 21 c-9 -15 -113 -147 -131 -166 -9
-9 -17 -10 -23 -4 -7 7 12 38 57 94 37 46 72 87 78 91 14 9 28 -1 19 -15z
m-1168 -908 c47 -28 85 -57 85 -65 0 -8 -4 -14 -9 -14 -20 0 -181 103 -181
116 0 23 16 17 105 -37z"/>
<path d="M7470 3574 c-322 -6 -615 -10 -653 -7 -55 5 -71 3 -86 -11 -19 -17
-21 -17 -51 5 -31 23 -32 23 -62 6 -28 -16 -32 -16 -48 -2 -9 8 -26 15 -38 15
-19 0 -22 -6 -22 -42 0 -24 -7 -79 -15 -123 -51 -283 -51 -279 -29 -490 5 -49
3 -63 -10 -74 -14 -12 -19 -11 -36 4 -13 11 -24 15 -30 9 -4 -5 -13 -52 -19
-104 -6 -52 -16 -126 -21 -165 -55 -403 -55 -403 -36 -424 22 -24 21 -27 -19
-115 -37 -81 -42 -106 -24 -106 8 0 10 -12 6 -35 -5 -31 -3 -37 17 -45 21 -8
23 -14 20 -52 -2 -24 -6 -83 -10 -131 -5 -75 -8 -88 -22 -85 -15 3 -17 18 -13
118 2 63 1 113 -2 110 -9 -8 -107 -545 -107 -584 0 -30 3 -37 18 -34 11 2 19
15 22 38 8 54 35 47 36 -10 2 -68 3 -70 19 -70 8 0 15 1 16 3 0 1 2 38 5 82 2
44 7 93 9 108 5 32 -17 47 -46 29 -27 -17 -28 2 -4 88 20 66 25 75 46 75 57 1
56 3 41 -192 -11 -141 -11 -185 -1 -213 9 -26 9 -35 0 -38 -15 -5 -47 -68 -56
-112 -12 -61 -16 -70 -32 -70 -14 0 -15 13 -11 88 6 103 4 112 -27 112 -21 0
-23 -4 -19 -33 3 -18 -4 -67 -16 -112 -79 -292 -83 -316 -81 -433 1 -51 2 -53
45 -80 24 -16 70 -35 101 -42 52 -12 73 -12 209 8 135 19 887 128 1041 152
169 25 498 73 559 81 79 10 96 21 96 60 0 33 -3 34 -185 46 -98 7 -120 11
-123 24 -2 14 15 17 120 23 171 9 256 34 322 93 40 37 57 106 37 150 -13 29
-8 38 22 38 19 0 22 6 22 40 l0 39 -105 28 c-99 27 -116 28 -305 27 -110 -1
-238 -5 -285 -9 -47 -5 -125 -11 -175 -14 -138 -9 -524 -48 -690 -70 -22 -3
-78 -10 -125 -16 -47 -6 -100 -13 -117 -16 -32 -5 -33 -4 -33 32 0 20 5 64 11
98 5 33 20 136 33 229 13 92 26 170 29 173 3 4 13 4 22 0 12 -4 15 -14 11 -33
-3 -16 -8 -92 -12 -170 -6 -135 -5 -143 12 -143 15 0 36 46 112 245 67 177 91
251 86 270 l-6 25 78 1 c192 2 306 11 467 35 514 76 825 174 923 288 53 61 45
76 -51 99 -171 39 -180 42 -183 60 -3 14 4 17 33 17 43 0 53 18 30 54 -15 22
-22 25 -58 21 -23 -3 -159 -14 -302 -25 -143 -11 -367 -29 -497 -40 -131 -11
-245 -17 -254 -13 -12 4 -14 13 -10 37 4 17 13 81 22 141 38 270 45 320 49
324 3 2 62 10 132 17 71 8 173 18 228 24 158 17 271 28 390 40 145 13 155 16
155 41 0 21 -3 21 -112 15 -62 -3 -150 -8 -195 -12 -76 -6 -82 -5 -95 15 -11
18 -22 21 -79 21 -36 0 -91 -5 -122 -11 -42 -9 -80 -8 -157 1 l-101 12 7 32
c3 17 9 34 13 37 6 6 205 16 791 40 302 12 340 20 398 83 22 24 49 61 60 83
19 36 62 158 62 174 0 4 -44 37 -97 73 l-98 66 -90 -2 c-49 0 -353 -7 -675
-14z"/>
<path d="M12697 3551 c-186 -18 -200 -24 -165 -74 19 -26 20 -37 13 -140 -6
-94 -10 -116 -28 -134 -20 -23 -20 -23 0 -23 20 0 20 -1 -3 -107 -142 -661
-137 -634 -120 -652 9 -10 16 -27 16 -39 0 -18 -6 -22 -35 -22 -45 0 -54 -20
-25 -60 19 -26 20 -38 15 -102 -6 -64 -12 -81 -50 -138 l-43 -65 -17 -335
c-12 -225 -30 -435 -54 -640 l-37 -305 74 -80 c83 -90 80 -72 42 -249 -12 -54
-18 -102 -13 -106 4 -4 47 -24 94 -44 78 -34 93 -37 164 -34 l79 3 11 45 c19
75 81 183 165 289 50 63 52 80 36 297 -8 108 -7 122 8 127 9 4 16 11 16 18 0
6 -7 8 -17 5 -14 -6 -12 -2 5 17 27 29 28 54 2 82 -19 21 -19 22 0 300 49 718
149 1288 314 1795 21 63 22 76 9 78 -13 3 -13 6 1 21 14 16 13 24 -18 97 l-33
79 -45 6 c-65 10 -86 24 -99 69 -14 47 -2 46 -262 21z m-143 -788 c-8 -164 -9
-168 -27 -171 -15 -3 -17 7 -17 76 0 43 3 107 6 141 6 50 10 61 25 61 16 0 17
-9 13 -107z m-62 -389 c-4 -115 -8 -134 -28 -134 -13 0 -15 15 -13 83 3 127 8
155 27 152 15 -2 17 -15 14 -101z m-56 -296 c-3 -24 -5 -76 -5 -115 -1 -66 -3
-73 -21 -73 -18 0 -20 7 -20 63 0 34 3 86 6 115 6 43 10 52 26 52 17 0 19 -5
14 -42z m30 -1585 c-5 -51 -11 -63 -47 -98 l-41 -40 6 49 c3 27 6 71 6 97 l0
49 41 0 41 0 -6 -57z"/>
<path d="M10200 3505 c-182 -22 -300 -63 -375 -128 -47 -41 -43 -52 11 -34 21
8 54 17 72 20 27 5 32 3 32 -12 0 -12 -10 -21 -27 -24 -35 -8 -242 -174 -390
-313 -200 -187 -356 -409 -379 -539 -6 -37 -18 -54 -36 -55 -23 0 0 63 67 188
54 100 75 150 75 176 0 29 -4 36 -19 36 -14 0 -33 -31 -79 -132 -159 -347
-201 -488 -227 -755 -26 -271 -18 -518 26 -776 23 -138 45 -203 98 -284 112
-174 331 -267 682 -289 97 -6 106 -8 102 -25 -4 -15 -15 -19 -44 -19 -50 0
-52 -22 -5 -76 l33 -38 153 2 c202 3 291 27 440 117 37 22 70 35 93 35 l35 0
7 -88 c8 -87 1 -289 -11 -350 l-6 -32 61 0 c37 0 61 4 61 11 0 16 20 199 26
237 4 24 10 32 21 30 14 -3 16 -22 14 -143 -2 -138 6 -191 32 -207 7 -4 39 -8
72 -8 l61 0 11 43 c16 58 45 92 110 129 49 28 53 32 39 47 -14 16 -12 21 24
56 l40 39 0 161 c0 149 2 166 30 255 34 108 36 136 15 161 -15 15 -7 46 79
340 52 178 100 345 107 372 34 135 155 221 331 234 l78 6 6 34 c4 19 4 37 0
40 -3 4 -87 -2 -185 -13 -99 -11 -184 -18 -190 -16 -6 2 -11 11 -11 21 0 15
39 21 313 54 171 21 322 37 333 37 23 0 34 17 34 56 0 23 -2 24 -75 24 -69 0
-75 2 -75 21 0 11 9 28 19 37 19 16 25 36 22 74 -2 37 -137 103 -325 159 l-99
29 -31 -20 c-28 -17 -34 -17 -47 -5 -19 18 -51 23 -56 8 -6 -17 34 -50 69 -57
17 -3 50 -6 74 -6 83 0 43 -44 -48 -53 -35 -3 -263 -29 -507 -57 l-443 -50
-172 15 c-94 8 -190 17 -213 20 -37 4 -43 2 -43 -14 0 -10 -9 -26 -20 -36 -12
-10 -18 -25 -16 -32 4 -10 167 -232 193 -263 3 -3 57 -6 121 -7 108 -2 119 0
141 20 l24 22 -7 -35 c-8 -43 -14 -46 -89 -53 -179 -17 -305 -61 -318 -111
-10 -34 14 -76 42 -76 39 0 86 -27 93 -54 l6 -25 133 -3 132 -3 -116 -120
c-330 -343 -363 -380 -347 -383 48 -9 332 247 537 486 53 61 91 80 91 44 0
-28 -212 -284 -350 -423 -211 -212 -331 -288 -471 -299 -76 -5 -80 -4 -77 15
2 16 11 20 37 20 25 0 36 5 42 20 17 45 10 60 -38 84 -131 63 -258 185 -317
304 -47 96 -67 188 -67 311 0 94 4 115 64 323 l65 221 87 129 c239 350 461
571 655 653 39 16 82 24 148 28 82 4 101 1 170 -23 42 -15 110 -49 151 -76 78
-52 104 -58 131 -34 16 14 18 13 24 -24 9 -56 27 -71 91 -71 62 0 65 6 54 95
-4 33 -8 77 -8 98 -1 36 0 37 35 37 31 0 37 -4 50 -35 7 -19 14 -53 14 -75 0
-39 1 -40 35 -40 41 0 41 -3 15 115 -12 50 -23 116 -25 148 -14 170 -146 285
-450 390 -144 49 -162 53 -170 29 -7 -23 -26 -23 -53 1 -23 21 -170 22 -332 2z
m350 -315 c0 -19 -7 -20 -133 -20 -74 0 -136 3 -140 6 -3 3 -3 12 0 20 4 11
33 14 139 14 127 0 134 -1 134 -20z m-17 -2333 c-3 -18 -8 -35 -12 -39 -8 -8
-301 -148 -301 -143 0 5 251 200 274 212 31 17 46 6 39 -30z m-430 -337 c-5
-18 -14 -20 -99 -20 -87 0 -94 1 -94 20 0 19 7 20 99 20 94 0 99 -1 94 -20z"/>
<path d="M9574 3175 c-73 -66 -130 -125 -132 -137 -4 -23 -10 -28 191 152 53
47 96 88 96 93 3 24 -42 -6 -155 -108z"/>
<path d="M17448 3023 c-21 -22 -38 -48 -38 -58 0 -16 8 -12 41 21 24 24 39 49
37 58 -2 14 -11 9 -40 -21z"/>
<path d="M9336 2926 c-43 -40 -77 -79 -75 -85 5 -15 169 128 169 146 0 22 -13
14 -94 -61z"/>
<path d="M2651 2806 c-8 -9 -11 -45 -9 -98 l3 -83 35 0 35 0 3 89 c3 92 -2
105 -39 106 -9 0 -22 -6 -28 -14z"/>
<path d="M11180 2380 c0 -3 14 -21 30 -40 l29 -35 35 34 c20 19 36 37 36 40 0
4 -29 6 -65 6 -36 0 -65 -2 -65 -5z"/>
<path d="M7380 1795 c-80 -14 -148 -24 -151 -25 -4 0 -9 9 -12 20 -5 20 -10
21 -139 15 -191 -8 -218 -13 -218 -34 0 -10 10 -27 23 -39 22 -21 28 -21 103
-12 43 5 178 19 299 30 300 29 320 32 320 50 0 23 -62 22 -225 -5z"/>
<path d="M9959 1010 c-35 -31 -40 -39 -24 -39 11 0 40 18 64 39 35 32 40 40
24 40 -11 0 -40 -18 -64 -40z"/>
</g>
</svg>
